<svg xmlns="http://www.w3.org/2000/svg" xmlns:xlink="http://www.w3.org/1999/xlink" width="1080" zoomAndPan="magnify" viewBox="0 0 810 809.999993" height="1080" preserveAspectRatio="xMidYMid meet" version="1.0"><defs><clipPath id="67293f4f7b"><path d="M 21.546875 15.230469 L 794.796875 15.230469 L 794.796875 788.480469 L 21.546875 788.480469 Z M 21.546875 15.230469 " clip-rule="nonzero"/></clipPath></defs><g clip-path="url(#67293f4f7b)"><path fill="#1a4789" d="M 794.835938 401.863281 C 794.835938 408.191406 794.679688 414.515625 794.367188 420.835938 C 794.058594 427.15625 793.59375 433.464844 792.972656 439.761719 C 792.351562 446.058594 791.578125 452.335938 790.648438 458.59375 C 789.722656 464.851562 788.640625 471.085938 787.40625 477.292969 C 786.171875 483.496094 784.785156 489.667969 783.246094 495.808594 C 781.710938 501.945312 780.023438 508.042969 778.1875 514.097656 C 776.347656 520.152344 774.363281 526.15625 772.234375 532.117188 C 770.101562 538.074219 767.824219 543.976562 765.402344 549.820312 C 762.980469 555.667969 760.417969 561.449219 757.714844 567.167969 C 755.007812 572.890625 752.164062 578.539062 749.179688 584.121094 C 746.199219 589.699219 743.082031 595.203125 739.828125 600.632812 C 736.574219 606.058594 733.191406 611.402344 729.675781 616.664062 C 726.160156 621.925781 722.519531 627.097656 718.75 632.179688 C 714.980469 637.261719 711.085938 642.246094 707.074219 647.140625 C 703.058594 652.03125 698.925781 656.820312 694.679688 661.507812 C 690.429688 666.195312 686.066406 670.777344 681.59375 675.25 C 677.117188 679.726562 672.539062 684.085938 667.847656 688.335938 C 663.160156 692.585938 658.371094 696.71875 653.480469 700.730469 C 648.589844 704.746094 643.601562 708.636719 638.519531 712.40625 C 633.4375 716.175781 628.265625 719.820312 623.003906 723.332031 C 617.742188 726.847656 612.398438 730.234375 606.972656 733.484375 C 601.546875 736.738281 596.042969 739.855469 590.460938 742.839844 C 584.878906 745.824219 579.230469 748.667969 573.511719 751.371094 C 567.789062 754.078125 562.007812 756.640625 556.160156 759.0625 C 550.316406 761.484375 544.414062 763.761719 538.457031 765.890625 C 532.5 768.023438 526.492188 770.007812 520.4375 771.84375 C 514.382812 773.679688 508.285156 775.367188 502.148438 776.90625 C 496.011719 778.441406 489.839844 779.828125 483.632812 781.0625 C 477.425781 782.296875 471.195312 783.378906 464.9375 784.308594 C 458.675781 785.234375 452.398438 786.011719 446.101562 786.628906 C 439.804688 787.25 433.496094 787.714844 427.175781 788.027344 C 420.855469 788.335938 414.535156 788.492188 408.207031 788.492188 C 401.878906 788.492188 395.554688 788.335938 389.234375 788.027344 C 382.914062 787.714844 376.605469 787.25 370.308594 786.628906 C 364.011719 786.011719 357.734375 785.234375 351.476562 784.308594 C 345.21875 783.378906 338.984375 782.296875 332.777344 781.0625 C 326.574219 779.828125 320.402344 778.441406 314.261719 776.90625 C 308.125 775.367188 302.027344 773.679688 295.972656 771.84375 C 289.917969 770.007812 283.914062 768.023438 277.953125 765.890625 C 271.996094 763.761719 266.09375 761.484375 260.25 759.0625 C 254.402344 756.640625 248.621094 754.078125 242.902344 751.371094 C 237.179688 748.667969 231.53125 745.824219 225.949219 742.839844 C 220.371094 739.855469 214.867188 736.738281 209.4375 733.484375 C 204.011719 730.234375 198.667969 726.847656 193.40625 723.332031 C 188.144531 719.820312 182.972656 716.175781 177.890625 712.40625 C 172.808594 708.636719 167.824219 704.746094 162.929688 700.730469 C 158.039062 696.71875 153.25 692.585938 148.5625 688.335938 C 143.875 684.085938 139.292969 679.726562 134.820312 675.25 C 130.34375 670.777344 125.984375 666.195312 121.734375 661.507812 C 117.484375 656.820312 113.351562 652.03125 109.339844 647.140625 C 105.324219 642.246094 101.433594 637.261719 97.664062 632.179688 C 93.894531 627.097656 90.25 621.925781 86.738281 616.664062 C 83.222656 611.402344 79.835938 606.058594 76.582031 600.632812 C 73.332031 595.203125 70.214844 589.699219 67.230469 584.121094 C 64.246094 578.539062 61.402344 572.890625 58.699219 567.167969 C 55.992188 561.449219 53.429688 555.667969 51.007812 549.820312 C 48.585938 543.976562 46.308594 538.074219 44.179688 532.117188 C 42.046875 526.15625 40.0625 520.152344 38.226562 514.097656 C 36.390625 508.042969 34.703125 501.945312 33.164062 495.808594 C 31.628906 489.667969 30.242188 483.496094 29.007812 477.292969 C 27.773438 471.085938 26.691406 464.851562 25.761719 458.59375 C 24.835938 452.335938 24.058594 446.058594 23.441406 439.761719 C 22.820312 433.464844 22.355469 427.15625 22.042969 420.835938 C 21.734375 414.515625 21.578125 408.191406 21.578125 401.863281 C 21.578125 395.535156 21.734375 389.214844 22.042969 382.894531 C 22.355469 376.574219 22.820312 370.265625 23.441406 363.96875 C 24.058594 357.671875 24.835938 351.394531 25.761719 345.132812 C 26.691406 338.875 27.773438 332.644531 29.007812 326.4375 C 30.242188 320.230469 31.628906 314.058594 33.164062 307.921875 C 34.703125 301.785156 36.390625 295.6875 38.226562 289.632812 C 40.0625 283.578125 42.046875 277.570312 44.179688 271.613281 C 46.308594 265.65625 48.585938 259.753906 51.007812 253.90625 C 53.429688 248.0625 55.992188 242.28125 58.699219 236.558594 C 61.402344 230.839844 64.246094 225.1875 67.230469 219.609375 C 70.214844 214.027344 73.332031 208.523438 76.582031 203.097656 C 79.835938 197.671875 83.222656 192.328125 86.738281 187.066406 C 90.25 181.804688 93.894531 176.632812 97.664062 171.550781 C 101.433594 166.46875 105.324219 161.480469 109.339844 156.589844 C 113.351562 151.699219 117.484375 146.910156 121.734375 142.222656 C 125.984375 137.53125 130.34375 132.949219 134.820312 128.476562 C 139.292969 124.003906 143.875 119.640625 148.5625 115.390625 C 153.25 111.140625 158.039062 107.011719 162.933594 102.996094 C 167.824219 98.984375 172.808594 95.089844 177.890625 91.320312 C 182.972656 87.550781 188.144531 83.910156 193.40625 80.394531 C 198.667969 76.878906 204.011719 73.496094 209.4375 70.242188 C 214.867188 66.988281 220.371094 63.871094 225.949219 60.890625 C 231.53125 57.90625 237.179688 55.0625 242.902344 52.355469 C 248.621094 49.652344 254.402344 47.089844 260.25 44.667969 C 266.09375 42.246094 271.996094 39.96875 277.953125 37.835938 C 283.914062 35.707031 289.917969 33.722656 295.972656 31.882812 C 302.027344 30.046875 308.125 28.359375 314.261719 26.824219 C 320.402344 25.285156 326.574219 23.898438 332.777344 22.664062 C 338.984375 21.429688 345.21875 20.347656 351.476562 19.421875 C 357.734375 18.492188 364.011719 17.71875 370.308594 17.097656 C 376.605469 16.476562 382.914062 16.011719 389.234375 15.703125 C 395.554688 15.390625 401.878906 15.234375 408.207031 15.234375 C 414.535156 15.234375 420.855469 15.390625 427.175781 15.703125 C 433.496094 16.011719 439.804688 16.476562 446.101562 17.097656 C 452.398438 17.71875 458.675781 18.492188 464.9375 19.421875 C 471.195312 20.347656 477.425781 21.429688 483.632812 22.664062 C 489.839844 23.898438 496.011719 25.285156 502.148438 26.824219 C 508.285156 28.359375 514.382812 30.046875 520.4375 31.882812 C 526.492188 33.722656 532.5 35.707031 538.457031 37.835938 C 544.414062 39.96875 550.316406 42.246094 556.160156 44.667969 C 562.007812 47.089844 567.789062 49.652344 573.511719 52.355469 C 579.230469 55.0625 584.878906 57.90625 590.460938 60.890625 C 596.042969 63.871094 601.546875 66.988281 606.972656 70.242188 C 612.398438 73.496094 617.742188 76.878906 623.003906 80.394531 C 628.265625 83.910156 633.4375 87.550781 638.519531 91.320312 C 643.601562 95.089844 648.589844 98.984375 653.480469 102.996094 C 658.371094 107.011719 663.160156 111.140625 667.847656 115.390625 C 672.539062 119.640625 677.117188 124.003906 681.59375 128.476562 C 686.066406 132.949219 690.429688 137.53125 694.679688 142.222656 C 698.925781 146.910156 703.058594 151.699219 707.074219 156.589844 C 711.085938 161.480469 714.980469 166.46875 718.75 171.550781 C 722.519531 176.632812 726.160156 181.804688 729.675781 187.066406 C 733.191406 192.328125 736.574219 197.671875 739.828125 203.097656 C 743.082031 208.523438 746.199219 214.027344 749.179688 219.609375 C 752.164062 225.1875 755.007812 230.839844 757.714844 236.558594 C 760.417969 242.28125 762.980469 248.0625 765.402344 253.90625 C 767.824219 259.753906 770.101562 265.65625 772.234375 271.613281 C 774.363281 277.570312 776.347656 283.578125 778.1875 289.632812 C 780.023438 295.6875 781.710938 301.785156 783.246094 307.921875 C 784.785156 314.058594 786.171875 320.230469 787.40625 326.4375 C 788.640625 332.644531 789.722656 338.875 790.648438 345.132812 C 791.578125 351.394531 792.351562 357.671875 792.972656 363.96875 C 793.59375 370.265625 794.058594 376.574219 794.367188 382.894531 C 794.679688 389.214844 794.835938 395.535156 794.835938 401.863281 Z M 794.835938 401.863281 " fill-opacity="1" fill-rule="nonzero"/></g><path fill="#ffffff" d="M 505.25 421.753906 L 516.183594 336.996094 L 432.246094 336.996094 L 432.246094 282.875 C 432.246094 258.335938 439.09375 241.613281 474.277344 241.613281 L 519.125 241.585938 L 519.125 165.785156 C 511.378906 164.75 484.757812 162.441406 453.734375 162.441406 C 389.015625 162.441406 344.738281 201.949219 344.738281 274.492188 L 344.738281 336.996094 L 271.542969 336.996094 L 271.542969 421.753906 L 344.738281 421.753906 L 344.738281 639.226562 L 432.25 639.226562 L 432.25 421.753906 Z M 505.25 421.753906 " fill-opacity="1" fill-rule="nonzero"/></svg>