<svg xmlns="http://www.w3.org/2000/svg" xmlns:xlink="http://www.w3.org/1999/xlink" width="1080" zoomAndPan="magnify" viewBox="0 0 810 809.999993" height="1080" preserveAspectRatio="xMidYMid meet" version="1.0"><defs><clipPath id="2749ea7277"><path d="M 23.578125 25.269531 L 784.828125 25.269531 L 784.828125 786.519531 L 23.578125 786.519531 Z M 23.578125 25.269531 " clip-rule="nonzero"/></clipPath></defs><g clip-path="url(#2749ea7277)"><path fill="#000000" d="M 247.410156 25.269531 C 124.546875 25.269531 23.578125 126.105469 23.578125 249.105469 L 23.578125 562.6875 C 23.578125 685.550781 124.410156 786.519531 247.410156 786.519531 L 560.996094 786.519531 C 683.859375 786.519531 784.828125 685.6875 784.828125 562.6875 L 784.828125 249.105469 C 784.828125 126.238281 683.996094 25.269531 560.996094 25.269531 Z M 247.410156 94.476562 L 560.996094 94.476562 C 646.554688 94.476562 715.625 163.542969 715.625 249.105469 L 715.625 562.6875 C 715.625 648.246094 646.554688 717.316406 560.996094 717.316406 L 247.410156 717.316406 C 161.851562 717.316406 92.78125 648.246094 92.78125 562.6875 L 92.78125 249.105469 C 92.78125 163.542969 161.851562 94.476562 247.410156 94.476562 Z M 608.574219 170.167969 C 591.136719 170.167969 577.214844 184.089844 577.214844 201.527344 C 577.214844 218.960938 591.136719 232.882812 608.574219 232.882812 C 626.007812 232.882812 639.929688 218.960938 639.929688 201.527344 C 639.929688 184.089844 626.007812 170.167969 608.574219 170.167969 Z M 404.203125 198.28125 C 289.988281 198.28125 196.589844 291.679688 196.589844 405.894531 C 196.589844 520.109375 289.988281 613.507812 404.203125 613.507812 C 518.417969 613.507812 611.816406 520.109375 611.816406 405.894531 C 611.816406 291.679688 518.417969 198.28125 404.203125 198.28125 Z M 404.203125 267.484375 C 481.113281 267.484375 542.613281 328.988281 542.613281 405.894531 C 542.613281 482.804688 481.113281 544.304688 404.203125 544.304688 C 327.292969 544.304688 265.792969 482.804688 265.792969 405.894531 C 265.792969 328.988281 327.292969 267.484375 404.203125 267.484375 Z M 404.203125 267.484375 " fill-opacity="1" fill-rule="nonzero"/></g></svg>