<svg xmlns="http://www.w3.org/2000/svg" xmlns:xlink="http://www.w3.org/1999/xlink" width="1080" zoomAndPan="magnify" viewBox="0 0 810 809.999993" height="1080" preserveAspectRatio="xMidYMid meet" version="1.0"><defs><clipPath id="3035b2d721"><path d="M 20 28.65625 L 787 28.65625 L 787 796.65625 L 20 796.65625 Z M 20 28.65625 " clip-rule="nonzero"/></clipPath></defs><g clip-path="url(#3035b2d721)"><path fill="#0277b5" d="M 723.46875 28.65625 L 84.171875 28.65625 C 48.828125 28.65625 20.398438 57.46875 20.398438 92.429688 L 20.398438 732.878906 C 20.398438 768.222656 49.210938 796.65625 84.171875 796.65625 L 723.085938 796.65625 C 758.429688 796.65625 786.859375 767.839844 786.859375 732.878906 L 786.859375 92.429688 C 787.246094 57.46875 758.816406 28.65625 723.46875 28.65625 Z M 247.457031 662.1875 L 134.117188 662.1875 L 134.117188 321.792969 L 247.457031 321.792969 Z M 190.59375 280.683594 C 154.863281 280.683594 126.050781 251.871094 126.050781 216.140625 C 126.050781 180.410156 154.863281 151.597656 190.59375 151.597656 C 226.324219 151.597656 255.140625 180.410156 255.140625 216.140625 C 255.140625 251.871094 226.324219 280.683594 190.59375 280.683594 Z M 673.910156 662.1875 L 560.1875 662.1875 L 557.5 460.101562 C 557.5 460.101562 560.1875 406.316406 501.40625 406.699219 C 442.625 407.082031 434.558594 460.101562 434.558594 460.101562 L 434.558594 662.1875 L 320.066406 662.1875 L 320.066406 321.792969 L 429.945312 321.792969 L 429.945312 368.664062 C 429.945312 368.664062 434.558594 353.296875 459.914062 335.238281 C 485.269531 317.183594 527.148438 313.339844 545.203125 314.109375 C 563.261719 314.878906 587.851562 311.804688 628.957031 340.234375 C 673.140625 370.585938 674.292969 450.113281 674.292969 450.113281 Z M 673.910156 662.1875 " fill-opacity="1" fill-rule="nonzero"/></g></svg>